# xmcd
#
# Track frame offsets:
#	150
#	16567
#	33319
#	47940
#	61854
#	74770
#	88668
#	98994
#	109720
#	122237
#	135577
#	146133
#	155546
#	165839
#	177470
#	193025
#	205693
#	219203
#	235871
#	246574
#	261902
#	273733
#	288307
#	300510
#	310593
#	318676
#	332631
#
# Disc length: 4592 seconds
#
# Revision: 1
# Processed by: cddbd v1.5.2PL0 Copyright (c) Steve Scherf et al.
# Submitted via: EZCDAudioConverter 2.2.2.1
#
DISCID=8e11ee1b
DTITLE=Leo Dan - Grandes Exitos
DYEAR=2010
DGENRE=Balada
TTITLE0=Ojos Azules
TTITLE1=Siempre Estoy Pensando En Ella
TTITLE2=Tu Llegaste Cuando Menos Te Esperaba
TTITLE3=Mari Es Mi Amor
TTITLE4=Como Te Extraño Mi Amor
TTITLE5=Te He Prometido
TTITLE6=Como Poder Saber Si Te Amo
TTITLE7=Quien No Tiene Una Ilusion
TTITLE8=Una Calle Nos Separa
TTITLE9=Esa Pared
TTITLE10=Santiago Querido
TTITLE11=Te Pido Que Me Guies
TTITLE12=Estelita
TTITLE13=Fanny
TTITLE14=Tu Me Pides Que Te Olvide
TTITLE15=La Sombra De Mi Madre
TTITLE16=El Radio Esta Tocando Una Cancion
TTITLE17=Pideme La Luna
TTITLE18=El Amor Y La Felicidad
TTITLE19=Yo Se Que No Es Feliz
TTITLE20=Que Tiene La Niña
TTITLE21=El Amor Estuvo Aqui
TTITLE22=Pensar Que Tengo 20 Años
TTITLE23=Mi Corazon Herido
TTITLE24=Celia
TTITLE25=Ahora
TTITLE26=Mi Dulce Cristina
EXTD=
EXTT0=
EXTT1=
EXTT2=
EXTT3=
EXTT4=
EXTT5=
EXTT6=
EXTT7=
EXTT8=
EXTT9=
EXTT10=
EXTT11=
EXTT12=
EXTT13=
EXTT14=
EXTT15=
EXTT16=
EXTT17=
EXTT18=
EXTT19=
EXTT20=
EXTT21=
EXTT22=
EXTT23=
EXTT24=
EXTT25=
EXTT26=
PLAYORDER=
